<svg width="24" height="24" viewBox="0 0 24 24" fill="none" xmlns="http://www.w3.org/2000/svg">
<path d="M17.8403 18.4694C19.8622 16.5824 20.7607 13.4373 20.2216 10.427H12.1792V13.7518H16.762C16.5823 14.8301 15.9532 15.7287 15.0547 16.3128L17.8403 18.4694Z" fill="#4285F4"/>
<path d="M4.54111 15.8185C4.61473 15.9634 4.69236 16.1062 4.77398 16.2468C4.85567 16.3874 4.94123 16.5255 5.03067 16.6613C5.12017 16.7969 5.21336 16.9301 5.31036 17.0605C5.40736 17.191 5.50792 17.3186 5.61217 17.4434C5.71636 17.5681 5.82398 17.6899 5.93511 17.8086C6.04617 17.9273 6.16054 18.0427 6.27817 18.1549C6.39579 18.2671 6.51648 18.3759 6.64023 18.4814C6.76398 18.5868 6.89061 18.6886 7.02017 18.7868C7.14967 18.8851 7.28186 18.9796 7.41673 19.0703C7.55161 19.1611 7.68892 19.2479 7.82873 19.3309C7.96848 19.4139 8.11048 19.4929 8.25473 19.5679C8.39898 19.6429 8.54523 19.7138 8.69348 19.7804C8.84173 19.8471 8.99173 19.9096 9.14354 19.9678C9.29529 20.0261 9.44861 20.0799 9.60342 20.1295C9.75823 20.1791 9.91436 20.2243 10.0717 20.2649C10.2291 20.3057 10.3875 20.3419 10.5469 20.3738C10.7064 20.4055 10.8665 20.4328 11.0275 20.4555C11.1885 20.4782 11.35 20.4964 11.512 20.5099C11.674 20.5235 11.8362 20.5326 11.9987 20.5369C12.1612 20.5414 12.3237 20.5412 12.4862 20.5364C12.6487 20.5317 12.8109 20.5223 12.9729 20.5084C13.1349 20.4944 13.2963 20.4759 13.4572 20.4529C13.6182 20.4298 13.7783 20.4022 13.9377 20.3701C14.097 20.3379 14.2554 20.3014 14.4126 20.2603C14.5699 20.2193 14.7259 20.1738 14.8807 20.1239C15.0354 20.074 15.1885 20.0198 15.3402 19.9612C15.4919 19.9026 15.6417 19.8399 15.7899 19.7728C15.938 19.7058 16.084 19.6347 16.2281 19.5594C16.3722 19.4841 16.514 19.4048 16.6537 19.3215C16.7932 19.2382 16.9304 19.151 17.065 19.06C17.1997 18.9689 17.3317 18.8741 17.461 18.7756C17.5904 18.6771 17.7168 18.575 17.8403 18.4694L15.0547 16.3128C12.6734 17.8853 8.71961 17.3012 7.37167 13.6169L4.54111 15.8185Z" fill="#34A853"/>
<path d="M7.37168 13.6169C7.01224 12.4937 7.01224 11.4603 7.37168 10.3371L4.54112 8.1355C3.50774 10.2023 3.19324 13.1227 4.54112 15.8185L7.37168 13.6169Z" fill="#FBBC02"/>
<path d="M7.37167 10.337C8.36017 7.23687 12.5835 5.43968 15.4141 8.0905L17.8852 5.66431C14.3807 2.29462 7.55142 2.42937 4.54111 8.13543L7.37167 10.337Z" fill="#EA4335"/>
</svg>
