<svg width="75" height="302" viewBox="0 0 75 302" fill="none" xmlns="http://www.w3.org/2000/svg">
<rect x="11.2197" y="264.34" width="234" height="43" rx="3" transform="rotate(-90 11.2197 264.34)" fill="#F4F4F6"/>
<path d="M13.1371 265.118C10.6163 262.928 11.7309 258.796 15.0112 258.17L52.3855 251.04C55.2863 250.487 57.766 253.16 56.997 256.011L48.3427 288.097C47.5736 290.949 44.0861 292.012 41.857 290.075L13.1371 265.118Z" fill="#F4F4F6"/>
<path d="M15.2061 36.65C12.0484 35.5635 11.5336 31.3146 14.3406 29.5055L46.322 8.89342C48.8042 7.29361 52.1047 8.84289 52.4599 11.7746L56.4565 44.7661C56.8116 47.6978 53.9765 49.9903 51.1841 49.0295L15.2061 36.65Z" fill="#F4F4F6"/>
</svg>
